# xmcd
#
# Track frame offsets: 
#        150
#        18405
#        32107
#        53277
#        66537
#        81685
#        95030
#        108615
#        126377
#        140047
#        159057
#        170485
#        184835
#
# Disc length: 2709 seconds
#
# Revision: 10
# Processed by: cddbd v1.5.2PL0 Copyright (c) Steve Scherf et al.
# Submitted via: ExactAudioCopy v1.3
#
DISCID=ba0a930d
DTITLE=Randy Travis - Rise And Shine
DYEAR=2002
DGENRE=Country
TTITLE0=Raise Him Up
TTITLE1=Rise And Shine
TTITLE2=When Mama Prayed
TTITLE3=I'm Ready
TTITLE4=Three Wooden Crosses
TTITLE5=That's Jesus
TTITLE6=Pray For The Fish
TTITLE7=Jerusalem's Cry
TTITLE8=Keep Your Lure In The Water
TTITLE9=If You Only Knew
TTITLE10=Everywhere We Go
TTITLE11=The Gift
TTITLE12=Valley Of Pain
EXTD=YEAR: 2002 ID3G: 2
EXTT0=
EXTT1=
EXTT2=
EXTT3=
EXTT4=
EXTT5=
EXTT6=
EXTT7=
EXTT8=
EXTT9=
EXTT10=
EXTT11=
EXTT12=
PLAYORDER=
